<svg id="cubok" enable-background="new 0 0 510 510" viewBox="0 0 510 510" xmlns="http://www.w3.org/2000/svg"><path d="m348.648 262.236c3.174-3.058 6.174-6.244 9.004-9.543l122.348-78.142v-144.551h-90v-30h-270v30h-90v145.63l122.391 77.113c2.817 3.28 5.802 6.45 8.96 9.493 27.275 26.274 44.28 61.269 47.91 97.764h-89.261v60h-60v90h390v-90h-60v-60h-89.261c3.63-36.495 20.634-71.489 47.909-97.764zm101.352-202.236v98.115l-64.334 41.09c2.857-11.019 4.334-22.486 4.334-34.205v-105zm-90-30v60h-210v-60zm-300 129.073v-99.073h60v105c0 11.891 1.523 23.522 4.465 34.689zm360 290.927v30h-330v-30zm-60-30h-210v-30h210zm-32.164-179.369c-34.245 32.987-53.745 75.845-57.248 119.369h-31.176c-3.494-43.415-22.921-86.301-57.248-119.369-20.741-19.982-32.164-46.841-32.164-75.631v-45h210v45c0 28.79-11.423 55.649-32.164 75.631z"/></svg>