<svg id="task" enable-background="new 0 0 509.715 509.715" viewBox="0 0 509.715 509.715" xmlns="http://www.w3.org/2000/svg"><g><path d="m344.858 74.715v-30h-31.898c-16.001-59.64-100.226-59.6-116.203 0h-31.898v30h-75v435h330v-435zm-150 0h30v-15c1.513-39.754 58.501-39.724 60 0v15h30v30h-120zm195 405h-270v-375h45v30h180v-30h45z"/><path d="m310.464 190.322-21.213-21.213-49.393 49.393-19.394-19.393-21.213 21.213 40.607 40.606z"/><path d="m164.858 299.715h30v30h-30z"/><path d="m224.858 299.715h120v30h-120z"/><path d="m164.858 359.715h30v30h-30z"/><path d="m224.858 359.715h120v30h-120z"/><path d="m164.858 419.715h30v30h-30z"/><path d="m224.858 419.715h120v30h-120z"/></g></svg>